<svg width="53" height="53" viewBox="0 0 53 53" fill="none" xmlns="http://www.w3.org/2000/svg">
<circle cx="26.5" cy="26.5" r="26.5" fill="#DCFF00"/>
<g clip-path="url(#clip0_58_16)">
<path d="M26.1965 14.9158C24.5877 15.084 22.8562 15.7975 21.6019 16.8064C21.2383 17.0972 20.543 17.7925 20.2385 18.1607C18.7752 19.9512 18.0389 22.4008 18.2889 24.6731C18.4434 26.1001 18.9706 27.5725 19.725 28.6859C19.8704 28.9041 21.511 31.1173 23.3743 33.6077L26.7555 38.1341H27.1463H27.5371L30.9183 33.6077C32.7816 31.1173 34.4222 28.9041 34.5676 28.6859C34.713 28.4723 34.963 28.036 35.1175 27.7225C36.3491 25.2411 36.3582 22.3644 35.1493 19.8876C33.4905 16.5064 29.9321 14.5295 26.1965 14.9158ZM27.7598 20.8874C27.9371 20.9238 28.2506 21.0374 28.4642 21.1419C29.2323 21.5191 29.8594 22.3235 30.0321 23.1597C30.173 23.8232 30.0866 24.4549 29.7776 25.0912C29.5095 25.632 29.005 26.1364 28.4642 26.4045C27.5871 26.8317 26.7055 26.8317 25.8284 26.4045C25.2876 26.1364 24.7831 25.632 24.515 25.0912C24.0878 24.2141 24.0878 23.3324 24.515 22.4553C24.8876 21.6963 25.692 21.0647 26.5101 20.892C26.9009 20.8056 27.369 20.8056 27.7598 20.8874Z" fill="black"/>
</g>
<defs>
<clipPath id="clip0_58_16">
<rect width="23.2683" height="23.2683" fill="white" transform="translate(15.5122 14.8658)"/>
</clipPath>
</defs>
</svg>
