<svg width="213" height="53" viewBox="0 0 213 53" fill="none" xmlns="http://www.w3.org/2000/svg">
<path d="M51.3111 29.9929L51.6783 6.14919L61.0926 6.27161L58.7829 12.5927C58.7502 12.915 59.5419 13.0864 59.799 13.1232C61.0028 9.67086 62.7085 6.12878 66.6872 5.4473C71.1924 4.67605 73.2899 7.3979 73.8775 11.5358L74.5222 11.5113C75.1221 8.27117 78.1704 5.28407 81.5656 5.28815C88.0866 5.28815 89.119 11.4052 89.3394 16.5999C89.4781 19.8849 89.4985 23.2311 89.5842 26.5039C89.6128 27.6546 89.4536 28.8911 89.7025 29.9929H78.9417C79.1743 28.03 79.0274 26.0346 79.06 24.0554C79.1008 21.5621 79.6844 16.7428 79.06 14.531C78.4642 12.4294 76.4198 12.7804 75.8485 14.731C75.2813 16.6734 75.8281 20.6766 75.8934 22.8353C75.9342 24.1819 75.975 25.5367 76.0158 26.8711C76.0443 27.8995 75.8852 29.0135 76.1341 29.9929H65.4957C65.463 29.9031 65.6181 29.846 65.6181 29.8093V15.9919C65.6181 15.8409 65.5038 15.0125 65.463 14.8003C65.2631 13.7108 64.6591 12.2744 63.3288 12.9722C61.1701 14.1066 61.9128 19.8074 61.9536 21.8559C61.9985 24.3492 61.8842 27.1078 62.0679 29.5685C62.0801 29.7317 62.1372 29.8501 62.1944 29.9929H51.3111Z" fill="#9117BA"/>
<path d="M10.6385 0.889133L10.0263 20.5786L19.8119 19.8441V29.9929H0V0.889133H10.6385Z" fill="#9117BA"/>
<path d="M15.3844 10.0993C18.0287 9.93202 19.9752 11.1807 19.6855 14.0332C19.2978 17.9098 12.4585 17.8037 11.9933 14.2698C11.6628 11.7643 12.8707 10.2585 15.3803 10.0993H15.3844Z" fill="#9117BA"/>
<path d="M33.258 6.12879V21.4764C33.258 21.9824 33.9028 23.2678 34.4332 23.48C36.8735 24.4594 37.4448 21.2438 37.4203 19.5136C37.3673 15.2615 37.2857 10.94 37.1796 6.67152C37.1755 6.46341 37.1388 6.31242 37.049 6.12879H47.565V29.9725L39.0118 29.8419L41.0848 23.7943L39.9341 23.4841C38.8404 27.1241 36.4124 30.7274 32.2215 30.8253C25.3863 30.9886 23.1786 26.3406 22.8644 20.2522V6.12471H33.2621L33.258 6.12879Z" fill="#9117BA"/>
<path d="M92.0408 29.9929L92.959 9.9361C95.9787 11.2256 99.5453 11.2501 102.557 9.9361L103.536 29.9888H92.0408V29.9929Z" fill="#9117BA"/>
<path d="M96.4153 0.0689038C99.6799 -0.302442 102.773 0.778949 102.928 4.49241C103.087 8.35686 100.076 9.76879 96.6275 9.4505C90.8655 8.92 90.8614 0.701416 96.4153 0.0689038Z" fill="#9117BA"/>
<path d="M157.267 30.0541H146.139L149.636 24.5533C149.763 24.1819 148.885 23.6841 148.649 23.9371C145.919 28.2422 140.785 32.0373 135.447 30.4132C133.248 29.744 131.51 27.9566 131.012 25.6755C129.057 16.6856 141.846 14.6208 148.094 16.2367L148.081 15.0248C144.156 14.0536 140.034 14.3188 136.088 15.0533C135.117 15.2329 133.929 15.694 133.024 15.792C132.917 15.8042 132.852 15.9185 132.742 15.7552L131.828 6.2104L140.442 5.47179C143.234 5.47179 146.123 5.48404 148.82 6.2757C159.336 9.35665 156.965 21.6151 157.259 30.0582L157.267 30.0541ZM147.698 18.828C146.221 18.926 141.475 19.2728 141.271 21.2152C141.075 23.1128 144.164 22.1252 145.078 21.7212C145.498 21.5335 147.624 20.3052 147.784 20.0277C147.922 19.7911 147.8 19.2891 147.959 18.9953L147.694 18.828H147.698Z" fill="#9117BA"/>
<path d="M184.502 30.0541H174.108V14.7065C174.108 14.2005 173.464 12.915 172.933 12.7028C170.493 11.7235 169.922 14.9391 169.946 16.6693C169.999 20.9214 170.081 25.2429 170.187 29.5114C170.191 29.7195 170.228 29.8705 170.317 30.0541H159.801V6.2104L168.355 6.34098L166.282 12.3886L167.432 12.6988C168.526 9.05875 170.954 5.45547 175.145 5.35753C181.98 5.1943 184.188 9.84225 184.502 15.9307V30.0582V30.0541Z" fill="#9117BA"/>
<path d="M119.153 0.950348L118.541 20.6358L128.327 19.9012V30.0541H108.515V0.950348H119.153Z" fill="#9117BA"/>
<path d="M123.899 10.1565C126.543 9.98916 128.49 11.2379 128.2 14.0903C127.812 17.967 120.973 17.8609 120.508 14.327C120.177 11.8214 121.385 10.3156 123.895 10.1565H123.899Z" fill="#9117BA"/>
<path d="M212.439 0.844246V29.948H202.167L202.902 25.1817L201.816 25.198C200.784 31.3722 193.01 32.6535 189.276 27.9852C184.482 21.9865 185.506 4.56995 195.744 5.37386C199.629 5.67991 202.286 8.6466 203.579 12.103L204.608 11.8459C204.322 10.5401 203.763 9.20158 203.118 8.02225C202.975 7.76516 202.163 6.73682 202.163 6.6552V0.848331H212.435L212.439 0.844246ZM200.67 12.9722C199.47 13.0783 199.164 15.3716 199.103 16.3061C199.025 17.4977 198.882 22.2558 200.645 22.3619C202.649 22.4844 202.51 17.4202 202.408 16.1878C202.335 15.3063 201.894 12.862 200.67 12.9681V12.9722Z" fill="#9117BA"/>
<path d="M0 49.8742V41.6475H2.44435V45.5976C2.44435 46.2219 2.41579 46.7484 2.35458 47.1768C2.29337 47.6053 2.19951 48.0379 2.07301 48.4786H2.34642L6.79849 41.6475H10.7323V49.8742H8.30428V45.9404C8.30428 45.3038 8.33284 44.7733 8.39405 44.3448C8.45526 43.9204 8.54096 43.4838 8.66338 43.0431H8.40222L3.95014 49.8742H0Z" fill="#9117BA"/>
<path d="M12.9237 49.8742V41.6475H15.4823V49.8742H12.9237ZM15.2048 46.732V44.5937H21.3096V46.732H15.2048ZM21.0321 49.8742V41.6475H23.5744V49.8742H21.0321Z" fill="#9117BA"/>
<path d="M28.4019 49.8742V43.8021H24.7905V41.6475H34.5557V43.8021H30.9442V49.8742H28.4019Z" fill="#9117BA"/>
<path d="M40.7706 50.0864C39.5831 50.0864 38.567 49.8946 37.7182 49.511C36.8694 49.1274 36.2328 48.6092 35.8003 47.9562C35.3677 47.3033 35.1514 46.5729 35.1514 45.7608C35.1514 44.9488 35.3677 44.2183 35.8003 43.5654C36.2328 42.9125 36.8735 42.3942 37.7264 42.0106C38.5792 41.627 39.6035 41.4352 40.8032 41.4352C42.003 41.4352 43.0231 41.627 43.8719 42.0106C44.7207 42.3942 45.3573 42.9165 45.7899 43.5735C46.2224 44.2305 46.4387 44.9732 46.4387 45.7935C46.4387 46.022 46.4224 46.2587 46.3898 46.5076H37.1755V45.0671H44.5738L44.0882 46.0873V45.7649C44.0882 45.2915 43.9658 44.8671 43.7169 44.4958C43.4679 44.1244 43.1007 43.8306 42.6151 43.6225C42.1295 43.4144 41.5255 43.3083 40.8032 43.3083C40.0809 43.3083 39.4607 43.4144 38.9751 43.6225C38.4895 43.8306 38.1222 44.1244 37.8733 44.4958C37.6243 44.8671 37.5019 45.2915 37.5019 45.7649C37.5019 46.2383 37.6243 46.679 37.8733 47.0503C38.1222 47.4217 38.4895 47.7155 38.9832 47.9236C39.4729 48.1358 40.085 48.2378 40.8196 48.2378C41.652 48.2378 42.2886 48.1399 42.7375 47.9399C43.1864 47.74 43.5373 47.4951 43.7985 47.2013H46.2592C46.0959 47.6543 45.8021 48.0991 45.3777 48.5357C44.9493 48.9723 44.3535 49.3396 43.5822 49.6375C42.811 49.9354 41.8724 50.0823 40.7747 50.0823L40.7706 50.0864Z" fill="#9117BA"/>
<path d="M48.1689 52.9837V41.6515H50.7275L50.3398 43.8878H50.6132C50.7846 43.3695 51.0499 42.9329 51.4049 42.5779C51.7599 42.2228 52.2211 41.9453 52.7801 41.7454C53.3433 41.5454 54.0002 41.4475 54.7552 41.4475C55.6815 41.4475 56.4936 41.6311 57.1832 41.9984C57.8729 42.3657 58.4074 42.8757 58.7869 43.5287C59.1664 44.1816 59.3542 44.9283 59.3542 45.7731C59.3542 46.6178 59.1664 47.3809 58.7869 48.0338C58.4074 48.6867 57.8729 49.1927 57.1832 49.5559C56.4936 49.9191 55.6815 50.0986 54.7552 50.0986C54.0002 50.0986 53.3392 50.0007 52.7801 49.8089C52.217 49.613 51.7599 49.3355 51.4049 48.9764C51.0499 48.6132 50.7846 48.1807 50.6132 47.6747H50.3398C50.4582 48.2052 50.552 48.7071 50.6214 49.1805C50.6908 49.6538 50.7275 50.1394 50.7275 50.6373V53H48.1689V52.9837ZM53.788 48.0787C54.4369 48.0787 54.9878 47.9767 55.4407 47.7726C55.8937 47.5686 56.2365 47.2911 56.4691 46.9483C56.7017 46.6014 56.8159 46.2097 56.8159 45.7649C56.8159 45.3201 56.7017 44.9406 56.4691 44.5897C56.2365 44.2387 55.8937 43.9653 55.4407 43.7653C54.9878 43.5654 54.4369 43.4675 53.788 43.4675C53.1392 43.4675 52.5883 43.5695 52.1354 43.7653C51.6824 43.9653 51.3396 44.2387 51.107 44.5897C50.8744 44.9406 50.7601 45.3323 50.7601 45.7649C50.7601 46.1975 50.8744 46.6014 51.107 46.9483C51.3396 47.2952 51.6824 47.5686 52.1354 47.7726C52.5883 47.9767 53.1392 48.0787 53.788 48.0787Z" fill="#9117BA"/>
<path d="M64.6876 50.0864C63.3941 50.0864 62.4351 49.862 61.823 49.4131C61.2068 48.9642 60.9007 48.3562 60.9007 47.5931C60.9007 46.83 61.2068 46.2505 61.823 45.8057C62.4392 45.3568 63.3941 45.1324 64.6876 45.1324C65.6262 45.1324 66.4056 45.2181 67.0177 45.3854C67.6339 45.5527 68.242 45.7975 68.8459 46.124V45.5241C68.8459 45.1038 68.7398 44.7325 68.5235 44.4142C68.3072 44.0959 67.9849 43.847 67.5605 43.6592C67.132 43.4756 66.6015 43.3858 65.9649 43.3858C65.4018 43.3858 64.9284 43.4511 64.5407 43.5817C64.1531 43.7123 63.8511 43.8755 63.6348 44.0755C63.4185 44.2754 63.2716 44.4999 63.1982 44.7488H60.6559C60.7293 44.1244 60.9701 43.5654 61.37 43.0716C61.7699 42.5819 62.3535 42.1861 63.1247 41.8882C63.896 41.5903 64.855 41.4434 65.9976 41.4434C67.1402 41.4434 68.1767 41.6148 68.9765 41.9617C69.7763 42.3085 70.368 42.7941 70.7557 43.4185C71.1434 44.0428 71.3392 44.7774 71.3392 45.6221V47.3727C71.3392 47.589 71.3882 47.7441 71.4861 47.842C71.5841 47.9399 71.731 47.9889 71.9228 47.9889C72.0615 47.9889 72.2125 47.9685 72.3757 47.9236V49.915C72.0207 50.0333 71.6412 50.0945 71.2413 50.0945C70.8087 50.0945 70.4415 50.0252 70.1395 49.8905C69.8375 49.7558 69.609 49.5681 69.458 49.3233C69.307 49.0785 69.2295 48.801 69.2295 48.4908V48.4255H68.9561V48.4745C68.9561 48.7438 68.801 49.0009 68.4868 49.2417C68.1726 49.4865 67.6951 49.6865 67.0545 49.8497C66.4138 50.0129 65.6221 50.0945 64.6836 50.0945L64.6876 50.0864ZM65.6425 48.3521C66.3118 48.3521 66.9035 48.295 67.4136 48.1725C67.9277 48.0542 68.4052 47.891 68.8459 47.6869V47.234C68.3481 47.0299 67.8543 46.8708 67.3646 46.7647C66.8749 46.6586 66.2995 46.6014 65.6384 46.6014C64.8182 46.6014 64.2551 46.679 63.9449 46.8381C63.6389 46.9932 63.4838 47.2095 63.4838 47.4788C63.4838 47.7481 63.6389 47.9766 63.9449 48.1276C64.251 48.2786 64.8182 48.3562 65.6384 48.3562L65.6425 48.3521Z" fill="#9117BA"/>
<path d="M73.6571 49.8742V41.6475H76.2158V49.8742H73.6571ZM80.3618 49.8742L76.0076 45.5976L80.2679 41.6475H83.5529L78.7295 45.924V45.2426L83.7161 49.8742H80.3659H80.3618Z" fill="#9117BA"/>
<path d="M87.0297 49.8742V43.8021H83.4183V41.6475H93.1835V43.8021H89.572V49.8742H87.0297Z" fill="#9117BA"/>
<path d="M94.3832 49.8742V41.6475H96.8276V45.5976C96.8276 46.2219 96.799 46.7484 96.7378 47.1768C96.6766 47.6053 96.5827 48.0379 96.4562 48.4786H96.7296L101.182 41.6475H105.116V49.8742H102.687V45.9404C102.687 45.3038 102.716 44.7733 102.777 44.3448C102.838 43.9204 102.924 43.4838 103.047 43.0431H102.785L98.3334 49.8742H94.3832Z" fill="#9117BA"/>
<path d="M107.303 49.8742V41.6475H114.603C115.509 41.6475 116.199 41.8311 116.668 42.1983C117.137 42.5656 117.374 43.039 117.374 43.6225C117.374 43.9775 117.297 44.2918 117.146 44.5611C116.995 44.8304 116.786 45.0426 116.521 45.1936C116.256 45.3446 115.95 45.4221 115.607 45.4221H115.219L115.574 45.1161V46.0873L115.219 45.6996H115.591C116.227 45.6996 116.737 45.8832 117.121 46.2505C117.505 46.6178 117.696 47.0911 117.696 47.6747C117.696 48.3643 117.456 48.9071 116.974 49.2947C116.493 49.6824 115.762 49.8783 114.779 49.8783H107.299L107.303 49.8742ZM114.15 48.1113C114.473 48.1113 114.718 48.0379 114.889 47.891C115.056 47.7441 115.142 47.5441 115.142 47.2829C115.142 47.0218 115.056 46.8381 114.889 46.6912C114.722 46.5443 114.477 46.4709 114.15 46.4709H109.502V44.9814H113.938C114.207 44.9814 114.42 44.912 114.579 44.7692C114.734 44.6305 114.815 44.4387 114.815 44.202C114.815 43.9653 114.738 43.7776 114.579 43.6348C114.424 43.496 114.207 43.4226 113.938 43.4226H109.759V48.1032H114.146L114.15 48.1113Z" fill="#9117BA"/>
<path d="M119.137 49.8742V41.6475H121.695V49.8742H119.137ZM121.422 46.732V44.5937H127.527V46.732H121.422ZM127.249 49.8742V41.6475H129.792V49.8742H127.249Z" fill="#9117BA"/>
<path d="M131.979 49.8742V41.6475H134.538V44.7406L134.374 44.757V47.9807H137.288C137.578 47.9807 137.827 47.9359 138.027 47.842C138.227 47.7481 138.378 47.6216 138.48 47.4625C138.582 47.2993 138.635 47.1115 138.635 46.8953C138.635 46.5606 138.52 46.2954 138.288 46.0954C138.055 45.8955 137.725 45.7975 137.292 45.7975H133.942V43.9204H137.521C138.708 43.9204 139.602 44.1816 140.202 44.7039C140.802 45.2262 141.099 45.9567 141.099 46.8993C141.099 47.5155 140.969 48.0419 140.712 48.4867C140.455 48.9315 140.055 49.2703 139.52 49.5151C138.986 49.7599 138.32 49.8783 137.521 49.8783H131.983L131.979 49.8742ZM142.422 49.8742V41.6475H144.964V49.8742H142.422Z" fill="#9117BA"/>
<path d="M147.135 49.8742V41.6475H149.579V45.5976C149.579 46.2219 149.551 46.7484 149.489 47.1768C149.428 47.6053 149.334 48.0379 149.208 48.4786H149.481L153.933 41.6475H157.867V49.8742H155.439V45.9404C155.439 45.3038 155.468 44.7733 155.529 44.3448C155.59 43.9204 155.676 43.4838 155.798 43.0431H155.537L151.085 49.8742H147.135ZM152.64 40.4355C151.819 40.4355 151.122 40.3131 150.55 40.0641C149.979 39.8152 149.534 39.4724 149.224 39.0358C148.91 38.5991 148.726 38.0891 148.673 37.5055H150.828C150.86 37.9258 151.032 38.2523 151.338 38.4767C151.644 38.7052 152.081 38.8154 152.64 38.8154C153.199 38.8154 153.652 38.7012 153.958 38.4767C154.264 38.2523 154.435 37.9258 154.468 37.5055H156.622C156.537 38.391 156.157 39.1011 155.488 39.6356C154.819 40.1702 153.868 40.4355 152.64 40.4355Z" fill="#9117BA"/>
<path d="M164.425 49.8742V41.6475H174.835V49.8742H172.292V43.8021H166.983V49.8742H164.425Z" fill="#9117BA"/>
<path d="M180.536 50.0864C179.242 50.0864 178.283 49.862 177.671 49.4131C177.055 48.9642 176.749 48.3562 176.749 47.5931C176.749 46.83 177.055 46.2505 177.671 45.8057C178.287 45.3609 179.242 45.1324 180.536 45.1324C181.474 45.1324 182.254 45.2181 182.866 45.3854C183.482 45.5527 184.09 45.7975 184.694 46.124V45.5241C184.694 45.1038 184.588 44.7325 184.371 44.4142C184.155 44.0959 183.833 43.847 183.408 43.6592C182.98 43.4756 182.449 43.3858 181.813 43.3858C181.25 43.3858 180.776 43.4511 180.389 43.5817C180.001 43.7123 179.699 43.8755 179.483 44.0755C179.266 44.2754 179.12 44.4999 179.046 44.7488H176.504C176.577 44.1244 176.818 43.5654 177.218 43.0716C177.618 42.5819 178.201 42.1861 178.973 41.8882C179.744 41.5903 180.703 41.4434 181.845 41.4434C182.988 41.4434 184.025 41.6148 184.824 41.9617C185.624 42.3085 186.216 42.7941 186.604 43.4185C186.991 44.0428 187.187 44.7774 187.187 45.6221V47.3727C187.187 47.589 187.236 47.7441 187.334 47.842C187.432 47.9399 187.579 47.9889 187.771 47.9889C187.909 47.9889 188.06 47.9685 188.224 47.9236V49.915C187.869 50.0333 187.489 50.0945 187.089 50.0945C186.657 50.0945 186.289 50.0252 185.987 49.8905C185.685 49.7558 185.457 49.5681 185.306 49.3233C185.155 49.0785 185.077 48.801 185.077 48.4908V48.4255H184.804V48.4745C184.804 48.7438 184.649 49.0009 184.335 49.2417C184.02 49.4865 183.543 49.6865 182.902 49.8497C182.262 50.0129 181.47 50.0945 180.531 50.0945L180.536 50.0864ZM181.495 48.3521C182.164 48.3521 182.755 48.295 183.266 48.1725C183.78 48.0542 184.257 47.891 184.698 47.6869V47.234C184.2 47.0299 183.706 46.8708 183.217 46.7647C182.727 46.6586 182.151 46.6014 181.49 46.6014C180.67 46.6014 180.107 46.679 179.797 46.8381C179.491 46.9932 179.336 47.2095 179.336 47.4788C179.336 47.7481 179.491 47.9766 179.797 48.1276C180.103 48.2786 180.67 48.3562 181.49 48.3562L181.495 48.3521Z" fill="#9117BA"/>
<path d="M189.509 52.9837V41.6515H192.068L191.68 43.8878H191.953C192.125 43.3695 192.39 42.9329 192.745 42.5779C193.1 42.2228 193.561 41.9453 194.12 41.7454C194.683 41.5454 195.34 41.4475 196.095 41.4475C197.022 41.4475 197.834 41.6311 198.523 41.9984C199.213 42.3657 199.748 42.8757 200.127 43.5287C200.507 44.1816 200.694 44.9283 200.694 45.7731C200.694 46.6178 200.507 47.3809 200.127 48.0338C199.748 48.6867 199.213 49.1927 198.523 49.5559C197.834 49.9191 197.022 50.0986 196.095 50.0986C195.34 50.0986 194.679 50.0007 194.12 49.8089C193.557 49.613 193.1 49.3355 192.745 48.9764C192.39 48.6132 192.125 48.1807 191.953 47.6747H191.68C191.798 48.2052 191.892 48.7071 191.962 49.1805C192.031 49.6538 192.068 50.1394 192.068 50.6373V53H189.509V52.9837ZM195.124 48.0787C195.773 48.0787 196.324 47.9767 196.777 47.7726C197.23 47.5686 197.573 47.2911 197.805 46.9483C198.038 46.6014 198.152 46.2097 198.152 45.7649C198.152 45.3201 198.038 44.9406 197.805 44.5897C197.573 44.2387 197.23 43.9653 196.777 43.7653C196.324 43.5654 195.773 43.4675 195.124 43.4675C194.475 43.4675 193.924 43.5695 193.471 43.7653C193.018 43.9653 192.676 44.2387 192.443 44.5897C192.21 44.9406 192.096 45.3323 192.096 45.7649C192.096 46.1975 192.21 46.6014 192.443 46.9483C192.676 47.2952 193.018 47.5686 193.471 47.7726C193.924 47.9767 194.475 48.0787 195.124 48.0787Z" fill="#9117BA"/>
<path d="M202.51 49.8742V41.6475H205.069V49.8742H202.51ZM209.211 49.8742L204.857 45.5976L209.117 41.6475H212.402L207.578 45.924V45.2426L212.565 49.8742H209.215H209.211Z" fill="#9117BA"/>
</svg>
