<svg width="36" height="36" viewBox="0 0 36 36" fill="none" xmlns="http://www.w3.org/2000/svg">
<rect x="0.5" y="0.5" width="35" height="35" rx="17.5" stroke="#7C2DAE" stroke-opacity="0.2"/>
<g clip-path="url(#clip0_90_5)">
<path fill-rule="evenodd" clip-rule="evenodd" d="M18.1719 25.9543C16.6017 25.9543 15.872 25.7241 14.6036 24.8032C13.8013 25.8392 11.2607 26.6488 11.1499 25.2637C11.1499 24.2238 10.9207 23.3452 10.6609 22.3859C10.3515 21.2041 10 19.888 10 17.981C10 13.4265 13.7211 10 18.1299 10C22.5425 10 26 13.5953 26 18.0232C26.0148 22.3827 22.5125 25.9311 18.1719 25.9543ZM18.2368 13.9368C16.0898 13.8255 14.4164 15.3181 14.0458 17.6587C13.7402 19.5964 14.2827 21.9562 14.745 22.0789C14.9666 22.1327 15.5243 21.6799 15.872 21.3307C16.4469 21.7296 17.1163 21.9691 17.8128 22.0252C20.0375 22.1327 21.9384 20.4317 22.0878 18.1997C22.1748 15.9631 20.4619 14.0686 18.2368 13.9406L18.2368 13.9368Z" fill="#4C345B"/>
</g>
<defs>
<clipPath id="clip0_90_5">
<rect width="16" height="16" fill="white" transform="translate(10 10)"/>
</clipPath>
</defs>
</svg>
