<svg width="20" height="20" viewBox="0 0 20 20" fill="none" xmlns="http://www.w3.org/2000/svg">
<g clip-path="url(#clip0_107_94)">
<path opacity="0.967" fill-rule="evenodd" clip-rule="evenodd" d="M10.293 -0.0195312C10.3711 -0.0195312 10.4492 -0.0195312 10.5273 -0.0195312C14.2288 0.661801 16.9958 2.64096 18.8281 5.91797C19.3572 6.95203 19.7413 8.03277 19.9805 9.16016C19.9805 9.23828 19.9805 9.31641 19.9805 9.39453C19.4607 9.48117 18.9399 9.5593 18.418 9.62891C17.7691 6.38363 15.9852 3.9943 13.0664 2.46094C12.1132 1.99347 11.1106 1.68748 10.0586 1.54297C10.126 1.01918 10.2041 0.498352 10.293 -0.0195312Z" fill="black"/>
<path opacity="0.988" fill-rule="evenodd" clip-rule="evenodd" d="M14.668 19.9805C14.2903 19.9805 13.9128 19.9805 13.5352 19.9805C12.4637 19.8166 11.435 19.4976 10.4492 19.0234C6.7959 17.2451 3.9118 14.6215 1.79687 11.1524C0.917375 9.70446 0.311907 8.15497 -0.0195312 6.50391C-0.0195312 6.11329 -0.0195312 5.72266 -0.0195312 5.33204C0.0541867 4.8968 0.216947 4.49313 0.46875 4.1211C1.12741 3.4494 1.79798 2.79185 2.48047 2.14844C3.10652 1.77904 3.70548 1.8181 4.27734 2.26563C5.13019 3.1185 5.98309 3.97137 6.83594 4.82423C7.3116 5.38782 7.36367 5.98677 6.99219 6.6211C6.42039 7.23196 5.83445 7.83091 5.23437 8.41798C5.19832 8.4779 5.17879 8.54302 5.17578 8.61329C5.47223 9.36255 5.86934 10.0527 6.36719 10.6836C7.34168 11.9056 8.45496 12.9798 9.70703 13.9063C10.2262 14.2505 10.773 14.5434 11.3477 14.7852C11.3867 14.7786 11.4258 14.7722 11.4648 14.7656C12.0792 14.1252 12.7172 13.5132 13.3789 12.9297C14.0097 12.5936 14.5956 12.6587 15.1367 13.125C15.9896 13.9779 16.8425 14.8307 17.6953 15.6836C18.1885 16.3335 18.1885 16.9846 17.6953 17.6367C17.0898 18.2422 16.4844 18.8477 15.8789 19.4531C15.5098 19.716 15.1061 19.8918 14.668 19.9805Z" fill="black"/>
<path opacity="0.966" fill-rule="evenodd" clip-rule="evenodd" d="M10.0586 3.96484C12.6131 4.37789 14.4295 5.75809 15.5078 8.10547C15.7 8.60102 15.8498 9.10883 15.957 9.62891C15.4267 9.74117 14.8928 9.8323 14.3555 9.90234C13.9926 8.02242 12.9379 6.68777 11.1914 5.89844C10.7653 5.73465 10.3291 5.61094 9.88281 5.52734C9.93566 5.00727 9.99426 4.48645 10.0586 3.96484Z" fill="black"/>
</g>
<defs>
<clipPath id="clip0_107_94">
<rect width="20" height="20" fill="white"/>
</clipPath>
</defs>
</svg>
