<svg width="36" height="36" viewBox="0 0 36 36" fill="none" xmlns="http://www.w3.org/2000/svg">
<rect x="0.5" y="0.5" width="35" height="35" rx="17.5" stroke="#7C2DAE" stroke-opacity="0.2"/>
<path d="M18 26.3332C22.6025 26.3332 26.3333 22.6023 26.3333 17.9998C26.3333 13.3973 22.6025 9.6665 18 9.6665C13.3975 9.6665 9.66663 13.3973 9.66663 17.9998C9.66663 21.3382 11.63 24.2182 14.465 25.5482L16.3733 16.5765C16.4222 16.3633 16.5529 16.1779 16.7373 16.0603C16.9217 15.9426 17.145 15.9022 17.3589 15.9477C17.5728 15.9932 17.7603 16.121 17.8809 16.3035C18.0014 16.486 18.0454 16.7085 18.0033 16.9232C17.775 17.9998 17.575 18.4165 17.5841 18.9165C17.5983 19.6998 17.8116 20.1182 18.0183 20.3348C18.2291 20.5557 18.5333 20.6748 18.9308 20.6682C19.3366 20.6598 19.7958 20.5173 20.2025 20.2607C20.9933 19.764 21.3333 18.9123 21.3333 17.9998C21.3327 17.5046 21.2219 17.0158 21.0087 16.5688C20.7956 16.1218 20.4855 15.728 20.1011 15.4158C19.7167 15.1037 19.2675 14.8811 18.7863 14.7643C18.3051 14.6475 17.8039 14.6393 17.3191 14.7405C16.8343 14.8416 16.3782 15.0495 15.9839 15.349C15.5895 15.6486 15.2668 16.0322 15.0393 16.472C14.8118 16.9118 14.6851 17.3968 14.6685 17.8918C14.6519 18.3867 14.7458 18.8791 14.9433 19.3332C15.0238 19.5342 15.0229 19.7587 14.9408 19.9591C14.8586 20.1595 14.7017 20.3201 14.5032 20.4067C14.3047 20.4934 14.0803 20.4994 13.8775 20.4234C13.6746 20.3475 13.5094 20.1956 13.4166 19.9998C13.0849 19.239 12.9478 18.4074 13.0177 17.5803C13.0877 16.7532 13.3624 15.9566 13.8172 15.2622C14.272 14.5678 14.8924 13.9975 15.6227 13.6029C16.3529 13.2082 17.1699 13.0016 18 13.0016C18.83 13.0016 19.647 13.2082 20.3772 13.6029C21.1075 13.9975 21.728 14.5678 22.1827 15.2622C22.6375 15.9566 22.9123 16.7532 22.9822 17.5803C23.0521 18.4074 22.915 19.239 22.5833 19.9998C22.2766 20.7065 21.7166 21.2782 21.09 21.6723C20.4608 22.0682 19.7091 22.3215 18.9608 22.3348C18.2783 22.3473 17.5675 22.1582 16.995 21.6615L16.05 26.1048C16.675 26.2548 17.3283 26.334 17.9991 26.334L18 26.3332Z" fill="#4C345B"/>
</svg>
