<svg width="36" height="36" viewBox="0 0 36 36" fill="none" xmlns="http://www.w3.org/2000/svg">
<rect x="0.5" y="0.5" width="35" height="35" rx="17.5" stroke="#7C2DAE" stroke-opacity="0.2"/>
<g clip-path="url(#clip0_58_77)">
<path d="M15.8856 19.4881L15.6375 22.9781C15.9925 22.9781 16.1462 22.8256 16.3306 22.6425L17.995 21.0519L21.4437 23.5775C22.0762 23.93 22.5219 23.7444 22.6925 22.9956L24.9562 12.3881L24.9569 12.3875C25.1575 11.4525 24.6187 11.0869 24.0025 11.3163L10.6962 16.4106C9.78811 16.7631 9.80186 17.2694 10.5419 17.4988L13.9437 18.5569L21.8456 13.6125C22.2175 13.3663 22.5556 13.5025 22.2775 13.7488L15.8856 19.4881Z" fill="#4C345B"/>
</g>
<defs>
<clipPath id="clip0_58_77">
<rect width="15" height="15" fill="white" transform="translate(10 10)"/>
</clipPath>
</defs>
</svg>
