<svg width="36" height="36" viewBox="0 0 36 36" fill="none" xmlns="http://www.w3.org/2000/svg">
<rect x="0.5" y="0.5" width="35" height="35" rx="17.5" stroke="#7C2DAE" stroke-opacity="0.2"/>
<path d="M23.4907 13.1715C23.3768 13.1127 23.2659 13.0481 23.1585 12.978C22.8461 12.7717 22.5598 12.5284 22.3057 12.2535C21.669 11.5252 21.4312 10.7865 21.3442 10.2697H21.3472C21.2745 9.84 21.3045 9.5625 21.3097 9.5625H18.411V20.7698C18.412 20.9198 18.41 21.0685 18.405 21.216L18.402 21.2708C18.402 21.2788 18.4012 21.287 18.3997 21.2955V21.3023C18.3693 21.7043 18.2405 22.0926 18.0247 22.4332C17.8089 22.7737 17.5128 23.056 17.1622 23.2553C16.7969 23.4641 16.3831 23.5733 15.9622 23.5718C14.6122 23.5718 13.5172 22.4708 13.5172 21.111C13.5172 19.7513 14.6122 18.6495 15.9622 18.6495C16.218 18.6495 16.4722 18.69 16.7152 18.7695L16.719 15.8175C15.981 15.7224 15.2313 15.7812 14.5172 15.9904C13.8031 16.1995 13.1401 16.5543 12.57 17.0325C12.0706 17.4666 11.6506 17.9843 11.3287 18.5625C11.2065 18.7733 10.7445 19.6215 10.689 20.997C10.6537 21.777 10.8885 22.587 11.0002 22.9208V22.9283C11.07 23.1248 11.343 23.7968 11.787 24.363C12.1454 24.8172 12.5684 25.2164 13.0425 25.548V25.5405L13.0492 25.548C14.4517 26.5005 16.008 26.4383 16.008 26.4383C16.2772 26.427 17.1795 26.4383 18.204 25.953C19.3402 25.4145 19.9867 24.6128 19.9867 24.6128C20.4004 24.1339 20.7292 23.5877 20.9587 22.998C21.2212 22.308 21.3082 21.4815 21.3082 21.1515V15.2048C21.3435 15.2258 21.8122 15.5355 21.8122 15.5355C21.8122 15.5355 22.4872 15.9683 23.5395 16.2495C24.294 16.4498 25.3117 16.4925 25.3117 16.4925V13.6148C24.9555 13.6538 24.2317 13.5413 23.49 13.1723" fill="#4C345B"/>
</svg>
