<svg width="36" height="36" viewBox="0 0 36 36" fill="none" xmlns="http://www.w3.org/2000/svg">
<rect x="0.5" y="0.5" width="35" height="35" rx="17.5" stroke="#7C2DAE" stroke-opacity="0.2"/>
<path d="M21.9412 18.4771C23.8982 19.6287 25.2218 21.3091 25.919 23.5754C25.934 23.6249 25.9444 23.677 25.963 23.7253C26.0429 23.9262 25.9977 23.9986 25.7858 23.9961C25.0068 23.9834 24.2275 23.9834 23.4478 23.9961C23.3699 24.0092 23.2903 23.989 23.2256 23.9395C23.161 23.8901 23.1161 23.8152 23.1004 23.7304C22.6024 22.2662 21.7547 21.1387 20.4369 20.4727C20.067 20.2928 19.6779 20.1647 19.2789 20.0914C19.0762 20.0558 19.0334 20.1232 19.0334 20.3303C19.0403 21.4285 19.0241 22.528 19.0438 23.6249C19.0438 23.944 18.9581 24.0062 18.6895 23.9973C17.0347 23.9732 15.4609 23.616 14.0365 22.6513C12.4535 21.5722 11.4391 19.996 10.7999 18.1009C10.2788 16.5642 10.0611 14.9601 10.0009 13.3268C9.99275 13.0853 10.0391 13.0052 10.2765 13.0052C10.9975 13.023 11.719 13.023 12.4408 13.0052C12.6724 13.0052 12.7546 13.0713 12.7593 13.3332C12.768 14.6026 12.9736 15.8611 13.3672 17.0548C13.8165 18.3691 14.4812 19.508 15.6207 20.2325C15.7869 20.3371 15.9599 20.428 16.1384 20.5045C16.4441 20.6316 16.458 20.6214 16.4591 20.2706V16.0901C16.4591 15.1609 16.4672 14.2305 16.4591 13.3014C16.4522 13.0586 16.5193 13.0052 16.7301 13.0052C17.3936 13.0205 18.0583 13.023 18.7219 13.0052C18.9685 13.0052 19.0508 13.0599 19.0473 13.3497C19.0334 14.575 19.0473 15.8016 19.0334 17.0243C19.0334 17.3052 19.0948 17.3675 19.3437 17.295C20.174 17.051 20.826 16.5159 21.3946 15.8359C22.0129 15.1082 22.4782 14.2404 22.7576 13.2938C22.7639 13.2482 22.7784 13.2045 22.8004 13.1652C22.8223 13.1259 22.8511 13.0918 22.8852 13.0649C22.9193 13.0381 22.9579 13.0189 22.9989 13.0087C23.0398 12.9984 23.0822 12.9972 23.1235 13.0052C23.8067 13.0192 24.49 13.0179 25.1732 13.0052C25.3793 13.0052 25.4361 13.0497 25.3828 13.2899C24.9103 15.4202 23.7986 17.0586 22.1774 18.3017C22.1079 18.3551 22.0442 18.4047 21.9412 18.4771Z" fill="#4C345B"/>
</svg>
