<svg width="35" height="36" viewBox="0 0 35 36" fill="none" xmlns="http://www.w3.org/2000/svg">
<rect x="0.5" y="0.5" width="34" height="35" rx="17" stroke="#7C2DAE" stroke-opacity="0.2"/>
<path d="M17.4941 11.0164C16.4386 11.1176 15.6429 11.3473 14.7789 11.793C13.4609 12.4766 12.3972 13.5621 11.7382 14.8965C11.4839 15.4078 11.3664 15.7223 11.2324 16.2254C11.0683 16.8598 11.0191 17.2453 11.0164 17.9453C11.0164 18.2953 11.03 18.6727 11.0492 18.8203C11.1996 19.9414 11.5496 20.9066 12.1375 21.809L12.3343 22.1125L11.8996 23.3949C11.6589 24.1031 11.4675 24.6828 11.473 24.6883C11.4785 24.6938 12.0746 24.5078 12.8019 24.2754C13.5292 24.043 14.1335 23.8516 14.1472 23.8516C14.1582 23.8516 14.2703 23.9145 14.396 23.9938C14.5218 24.0703 14.7843 24.2125 14.9785 24.3055C16.7476 25.1504 18.7683 25.2242 20.5785 24.5051C22.6292 23.693 24.2042 21.9129 24.7675 19.7746C24.9398 19.1184 24.9808 18.7602 24.9808 18C24.9808 17.2398 24.9398 16.8816 24.7675 16.2254C24.1058 13.718 22.096 11.7684 19.5585 11.175C19.132 11.0766 18.689 11.0246 18.1503 11.0164C17.8496 11.0109 17.5542 11.0109 17.4941 11.0164ZM15.8261 14.2594C15.8726 14.284 15.9355 14.3496 15.9683 14.4098C16.0476 14.5547 16.7148 16.1543 16.7339 16.2527C16.7585 16.3758 16.6355 16.5863 16.3648 16.8926C16.0804 17.2125 16.0203 17.3137 16.0449 17.4285C16.0914 17.6363 16.723 18.4758 17.114 18.8449C17.7183 19.4164 18.6316 19.9605 19.039 19.9906C19.2496 20.0043 19.3234 19.9469 19.646 19.5203C19.791 19.3262 19.9441 19.132 19.9906 19.0883C20.0945 18.9816 20.2503 18.9598 20.4281 19.0254C20.6523 19.1102 22.0277 19.7801 22.1261 19.8539L22.2191 19.9223L22.2027 20.2121C22.1644 20.9559 21.9019 21.3414 21.2128 21.6777C20.5566 21.9977 20.0425 21.9895 19.039 21.6422C17.6882 21.1746 16.9746 20.7289 16.0039 19.7527C15.5171 19.266 15.1726 18.8531 14.7789 18.2871C14.1281 17.3574 13.8792 16.6383 13.9531 15.9082C14.0132 15.323 14.2183 14.891 14.6312 14.4781C14.8308 14.2785 15.0906 14.1965 15.4843 14.2102C15.6511 14.2156 15.7742 14.232 15.8261 14.2594Z" fill="#4C345B"/>
</svg>
