<svg width="35" height="35" viewBox="0 0 35 35" fill="none" xmlns="http://www.w3.org/2000/svg">
<path opacity="0.99" fill-rule="evenodd" clip-rule="evenodd" d="M16.7136 2.83714C22.5767 2.7884 27.0542 5.22654 30.1462 10.1516C32.7987 15.1805 32.7303 20.1708 29.9412 25.1223C27.0054 29.6105 22.8355 31.9347 17.4314 32.095C12.055 31.9144 7.90785 29.5902 4.99 25.1223C2.19841 20.1709 2.13005 15.1807 4.78492 10.1516C7.51478 5.70503 11.491 3.26688 16.7136 2.83714ZM24.4382 12.4075C25.7002 12.382 26.2584 12.9973 26.113 14.2532C26.0447 14.3899 25.9763 14.5266 25.908 14.6633C22.9799 17.3635 20.0518 20.0637 17.1238 22.7639C16.5131 23.3461 15.8522 23.4144 15.1414 22.969C13.5805 21.4081 12.0196 19.8472 10.4587 18.2864C9.95179 17.2315 10.2366 16.491 11.3132 16.0647C11.7047 15.9892 12.0693 16.0576 12.407 16.2698C13.6042 17.4784 14.8119 18.6747 16.03 19.8586C18.5901 17.5836 21.1194 15.2708 23.6179 12.9201C23.8635 12.6953 24.137 12.5244 24.4382 12.4075Z" fill="black"/>
</svg>
